<?xml version="1.0" encoding="UTF-8"?>
<!DOCTYPE svg PUBLIC "-//W3C//DTD SVG 1.1//EN" "http://www.w3.org/Graphics/SVG/1.1/DTD/svg11.dtd">
<!-- Creator: CorelDRAW (Evaluation Version) -->
<svg xmlns="http://www.w3.org/2000/svg" xml:space="preserve" width="52.9166mm" height="52.9166mm" version="1.1" style="shape-rendering:geometricPrecision; text-rendering:geometricPrecision; image-rendering:optimizeQuality; fill-rule:evenodd; clip-rule:evenodd"
viewBox="0 0 5291.66 5291.66"
 xmlns:xlink="http://www.w3.org/1999/xlink"
 xmlns:xodm="http://www.corel.com/coreldraw/odm/2003">
 <defs>
  <style type="text/css">
   <![CDATA[
    .fil0 {fill:none}
    .fil2 {fill:#32A3DB}
    .fil3 {fill:#3586C6}
    .fil4 {fill:#4159A5}
    .fil1 {fill:#0098DB}
   ]]>
  </style>
 </defs>
 <g id="Layer_x0020_1">
  <metadata id="CorelCorpID_0Corel-Layer"/>
  <rect class="fil0" x="-4.25" y="4.22" width="5291.67" height="5291.67"/>
  <path class="fil1" d="M4584.7 516.46l-584.18 1769.54c-50.81,-304.81 -201.89,-210.02 -302.84,-315.03 -127.94,120.33 -247.42,252.84 -365.76,387l-1303.84 0c581.55,-325.91 899.03,-672.58 1049.16,-1032.42 -8.06,-199.49 -225.51,-234.59 -338.26,-351.89l1845.72 -457.2zm-1312.38 1909.24c-225.11,256.11 -450.52,511.79 -726.84,694.26l-1421.91 0c235.7,-265.32 474.57,-526.21 779.98,-694.26l1368.77 0zm-838.08 761.99c-22.63,12.64 -45.6,24.79 -68.96,36.38 -653.54,324.2 -1194.32,867.33 -1658.3,1559.59 229.81,-621.73 249.49,-1045.99 -8.47,-1209.35 127.57,-120.61 246.55,-253.23 364.96,-386.62l1370.77 0z"/>
  <path class="fil2" d="M2434.24 3187.69l-1370.77 0c-118.41,133.39 -237.39,266.01 -364.96,386.62 257.96,163.36 238.28,587.62 8.47,1209.35 463.98,-692.26 1004.76,-1235.39 1658.3,-1559.59 23.36,-11.59 46.33,-23.74 68.96,-36.38z"/>
  <path class="fil3" d="M1123.57 3119.96l1421.91 0c276.32,-182.47 501.73,-438.15 726.84,-694.26l-1368.77 0c-305.41,168.05 -544.28,428.94 -779.98,694.26z"/>
  <path class="fil4" d="M2028.08 2357.97l1303.84 0c118.34,-134.16 237.82,-266.67 365.76,-387 100.95,105.01 252.03,10.22 302.84,315.03l584.18 -1769.54 -1845.72 457.2c112.75,117.3 330.2,152.4 338.26,351.89 -150.13,359.84 -467.61,706.51 -1049.16,1032.42z"/>
 </g>
</svg>
